<?xml version="1.0" standalone="no"?>
<!DOCTYPE svg PUBLIC "-//W3C//DTD SVG 20010904//EN"
 "http://www.w3.org/TR/2001/REC-SVG-20010904/DTD/svg10.dtd">
<svg version="1.0" xmlns="http://www.w3.org/2000/svg"
 width="500.000000pt" height="500.000000pt" viewBox="0 0 500.000000 500.000000"
 preserveAspectRatio="xMidYMid meet">
<metadata>
Created by potrace 1.16, written by Peter Selinger 2001-2019
</metadata>
<g transform="translate(0.000000,500.000000) scale(0.100000,-0.100000)"
fill="#000000" stroke="none">
<path d="M0 2500 l0 -2500 2500 0 2500 0 0 2500 0 2500 -2500 0 -2500 0 0
-2500z m2057 895 c90 -34 172 -81 328 -186 119 -81 361 -263 465 -350 l43 -36
-109 1 c-98 1 -114 -2 -164 -25 -30 -14 -72 -43 -92 -63 l-38 -37 0 -144 c0
-89 4 -145 10 -146 6 -1 15 -2 22 -3 15 -1 30 -68 18 -80 -5 -5 -33 -11 -63
-14 -46 -4 -57 -1 -82 20 -26 23 -29 32 -33 107 -2 45 -9 84 -13 87 -5 3 -9
-8 -9 -24 0 -45 -28 -62 -109 -69 -94 -8 -79 -28 18 -25 l69 3 5 -33 c3 -18 2
-36 -2 -40 -12 -13 -125 -24 -175 -16 -32 4 -58 15 -73 31 -61 61 -46 207 24
236 34 14 137 19 175 8 24 -6 12 15 -98 180 -245 367 -333 577 -262 627 31 22
67 20 145 -9z m-780 -708 c51 -27 67 -68 67 -172 1 -95 -11 -131 -54 -170 -19
-17 -39 -20 -151 -23 l-129 -4 0 191 0 190 28 4 c61 11 207 1 239 -16z m2758
-90 c31 -16 44 -39 45 -78 0 -50 -23 -67 -103 -75 -85 -9 -75 -22 18 -26 l70
-3 3 -33 c3 -27 -1 -34 -23 -42 -41 -16 -162 -12 -201 6 -63 30 -85 158 -37
223 34 46 164 62 228 28z m643 -1 c2 -10 1 -33 -2 -51 -6 -32 -9 -34 -54 -37
l-47 -3 -3 -87 -3 -88 -54 0 -55 0 0 140 0 140 45 0 c33 0 45 -4 45 -15 0 -17
25 -20 35 -5 7 11 64 29 80 26 6 -2 12 -11 13 -20z m-3079 0 c19 -4 43 -14 53
-22 23 -21 33 -76 19 -103 -13 -23 -67 -41 -123 -41 -21 0 -38 -4 -38 -9 0
-14 38 -20 95 -14 l53 6 7 -33 c4 -20 3 -36 -4 -43 -16 -16 -178 -22 -213 -8
-48 18 -70 66 -66 144 3 57 8 71 30 94 17 16 43 29 70 33 43 7 52 7 117 -4z
m1605 -1 c5 -14 9 -14 36 0 19 10 49 15 77 13 37 -2 50 -9 67 -31 27 -37 34
-147 13 -200 -18 -43 -44 -52 -123 -44 l-54 6 0 -55 0 -55 -52 3 -53 3 -7 45
c-3 25 -7 109 -7 188 l-1 142 49 0 c35 0 51 -4 55 -15z m342 0 c5 -13 9 -13
34 0 48 25 112 19 141 -11 20 -22 24 -38 27 -103 3 -58 0 -86 -12 -109 -20
-38 -68 -54 -123 -41 -21 5 -40 9 -43 9 -3 0 -5 -24 -5 -52 l0 -53 -57 -3 -58
-3 0 191 0 190 45 0 c31 0 47 -5 51 -15z m686 -77 c3 -92 3 -93 28 -93 24 0
25 2 30 90 l5 90 58 3 57 3 0 -141 0 -140 -44 0 c-35 0 -46 4 -51 19 -6 19 -6
19 -40 0 -43 -26 -109 -27 -135 -4 -18 16 -20 32 -20 142 l0 123 55 0 54 0 3
-92z m-2413 45 c5 -21 15 -67 22 -103 l13 -65 18 80 c10 44 20 90 23 103 5 20
11 22 65 22 33 0 60 -4 60 -8 0 -18 -80 -245 -91 -258 -8 -9 -33 -14 -75 -14
-55 0 -65 3 -78 23 -11 18 -46 119 -81 235 -6 21 -4 22 54 22 l60 0 10 -37z"/>
<path d="M1130 2510 l0 -110 25 0 c14 0 34 9 46 21 19 19 21 30 17 100 -3 86
-11 99 -60 99 l-28 0 0 -110z"/>
</g>
</svg>
